<svg width="2803" height="466" viewBox="0 0 2803 466" fill="none" xmlns="http://www.w3.org/2000/svg">
<path d="M665.44 281.52C661.873 245.706 646.894 211.985 622.71 185.33C611.416 173.148 598.41 162.675 584.1 154.24C576.357 149.615 568.234 145.658 559.82 142.41C555.566 140.77 551.256 139.29 546.89 137.97C542.99 136.79 538.02 136.31 534.46 134.33C531.17 132.5 530.7 128.51 529.79 125.19C528.56 120.68 527.38 116.19 525.88 111.73C523.095 103.82 519.673 96.148 515.65 88.79C507.712 73.8455 497.511 60.2179 485.41 48.39C461.08 24.71 429.41 8.22997 395.84 2.91997C359.1 -2.88003 320.24 3.32998 287.49 21.11C257.4 37.44 233.04 63.63 217.34 93.92C208.816 110.169 203.506 127.91 201.7 146.17C199.8 165.49 200.36 185.17 200.37 204.54C200.37 243.91 200.67 283.28 200.57 322.64C200.57 332.27 202.39 369.69 229.26 392C235.363 397.242 242.035 401.784 249.15 405.54C263.43 412.69 282.72 415.23 298.21 411.72C354.69 398.9 363.03 350.83 363.21 342.47C363.64 322.47 363.4 302.47 363.33 282.47C363.256 262.663 363.256 242.857 363.33 223.05C363.33 218.11 363.33 213.173 363.33 208.24C363.33 205.03 364.23 200.15 362.74 197.12C361.06 193.7 356.67 194.55 353.48 194.51C348.573 194.45 343.666 194.417 338.76 194.41C333.86 194.41 328.95 194.41 324.05 194.56C320.7 194.66 317.75 195.27 316.43 198.72C315.11 202.17 316.3 207.09 316.31 210.72C316.31 215.747 316.31 220.773 316.31 225.8C316.31 245.627 316.31 265.457 316.31 285.29C316.31 295.343 316.31 305.397 316.31 315.45C316.31 324.6 317.01 334.05 313.53 342.73C308.45 355.4 296.84 365.05 282.86 364.94C275.904 364.851 269.143 362.631 263.489 358.579C257.835 354.527 253.559 348.838 251.24 342.28C248.47 334.71 249.14 326.47 249.03 318.55C248.89 308.55 248.773 298.57 248.68 288.61C248.3 248.69 248.23 208.76 248.04 168.84C248.04 159.68 247.36 150.48 249.15 141.43C250.848 132.875 253.533 124.546 257.15 116.61C263.982 101.593 273.727 88.082 285.82 76.86C310.39 54.17 344.26 42.08 377.64 44.72C411.02 47.36 442.53 63.3 463.84 89.37C474.577 102.509 482.415 117.769 486.84 134.15C489.025 142.343 490.517 150.706 491.3 159.15C491.76 163.87 491.15 170.58 496.3 172.83C499.3 174.15 502.88 173.97 506.07 174.55C510.35 175.33 514.63 176.11 518.92 176.87C527.8 178.45 536.56 180.33 544.98 183.61C559.973 189.599 573.609 198.539 585.08 209.9C608.53 232.77 621.5 263.51 622.48 296.21C623.01 313.76 618.03 332.67 610.65 348.52C603.674 363.357 593.816 376.659 581.65 387.65C568.9 399.13 553.12 407.65 536.94 413.19C518.85 419.37 500.17 418.79 481.3 418.88C441.59 419.05 401.87 418.76 362.16 418.77C321.846 418.77 281.536 418.77 241.23 418.77L180.76 418.71C161.68 418.71 142.2 419.63 123.5 415.11C91.1398 407.28 64.7498 382.55 51.9398 352.2C38.1398 319.49 43.7698 281.2 64.2998 252.61C83.8198 225.41 115.37 209.61 148.58 208.11C155.93 207.78 162.28 207.19 168.04 202.11C170.602 199.85 172.641 197.06 174.015 193.932C175.39 190.805 176.067 187.415 176 184C175.889 180.726 175.065 177.515 173.585 174.593C172.105 171.67 170.004 169.106 167.43 167.08C161.27 162.22 154.13 161.66 146.56 161.93C110.95 163.2 77.1298 177.66 50.5598 201.19C37.5098 212.76 27.0198 226.85 18.7398 242.19C14.5414 249.87 11.0182 257.9 8.20981 266.19C6.81774 270.345 5.64611 274.571 4.6998 278.85C4.2398 280.95 4.04981 283.22 3.38981 285.25C2.72981 287.28 -1.75019 311.46 2.88981 339.48C3.23981 341.58 3.80981 343.67 4.18981 345.76C7.09981 362 14.0798 378.14 22.6598 392.17C40.1621 420.442 66.2401 442.382 97.0898 454.79C105.554 458.221 114.351 460.764 123.34 462.38C128.02 463.22 132.72 463.87 137.43 464.49C141.25 464.99 141.25 464.99 149.69 465.04C159.01 465.04 168.43 465.14 177.69 465.14H207.86C287.76 465.093 367.66 465.093 447.56 465.14C467.2 465.14 486.98 465.87 506.56 464.8C525.121 463.814 543.38 459.685 560.56 452.59C593.5 439.1 620.5 417.42 639.86 387.46C649.51 372.53 657.25 356.23 661.19 338.83C663.28 329.58 665.67 319.97 666.39 310.5C667.11 301.03 666.42 291 665.44 281.52Z" fill="#0F62FE"/>
<path d="M416.09 196.15C413.98 194.52 410.91 194.43 408.37 194.35C403.77 194.21 399.15 194.35 394.55 194.35C389.43 194.35 384.3 194.27 379.17 194.35C377.51 194.35 375.1 194.08 373.95 195.57C372.47 197.5 373.34 202.52 373.34 204.64C373.34 209.633 373.34 214.633 373.34 219.64C373.34 240.16 373.357 260.683 373.39 281.21C373.39 302.29 373.317 323.367 373.17 344.44C373.1 353.08 373.8 361.44 377.45 369.44C381.01 377.21 386.87 384 393.12 389.74C399.351 395.632 406.404 400.587 414.06 404.45C421.34 408 431.81 411.81 441.75 411.81C509.23 411.81 522.58 378.52 529.17 362.73C530.36 359.88 530.82 354.06 533.76 352.46C536.37 351.04 541.21 352.01 544.01 352.01H559.65C563.2 352.01 567.33 352.53 570.83 351.7C576.28 350.41 574.9 342.92 574.93 338.7C575 329.21 575.44 319.53 574.88 310.06C574.51 303.72 571.18 302.85 565.34 302.89C555.04 302.95 544.74 302.89 534.43 302.89C535.34 293.45 535.11 284.03 535.09 274.54C535.09 253.72 534.97 232.9 535 212.08C535 206.59 536.55 197.69 530 195.18C526.23 193.73 521.62 194.07 517.69 194.07C512.69 194.07 507.69 194.07 502.69 194.07C498.47 194.07 489 192.66 486.52 197.52C485.26 199.99 485.66 203.52 485.65 206.14C485.65 211.14 485.65 216.14 485.65 221.14C485.65 242.24 485.65 263.34 485.65 284.44C485.65 294.613 485.65 304.79 485.65 314.97C485.65 324.56 485.65 334.5 483.07 343.82C479.2 357.77 465.07 368.7 450.32 368.02C434.38 367.28 420.67 354.67 419.49 338.88C417.94 318.25 418.95 297.24 418.93 276.56C418.93 255.667 418.93 234.77 418.93 213.87C419 208.93 420.7 199.71 416.09 196.15Z" fill="#0F62FE"/>
<path d="M530.779 129C530.779 129 538.779 153.9 536.989 180.88C536.989 180.88 547.519 179.46 566.339 194.67L591.339 158.79C591.339 158.79 565.629 142 544.879 137.73C544.879 137.73 534.309 135.08 530.779 129Z" fill="url(#paint0_linear_0_1)"/>
<path d="M80.5293 392.19C80.5293 392.19 103.529 436.27 182.999 465.25H267.499V418.78L155.999 418.73C155.999 418.73 113.809 422.66 80.5293 392.19Z" fill="url(#paint1_linear_0_1)"/>
<path d="M573.07 394.65C573.07 394.65 549.83 435.92 470.33 464.9L387.09 465.26V418.78L498.59 418.73C498.59 418.73 533.5 423.23 573.07 394.65Z" fill="url(#paint2_linear_0_1)"/>
<path d="M534.47 302.85C534.47 302.85 533.75 321.01 533.47 331.66C533.19 342.31 531.23 356.22 531.25 355.96C531.499 354.725 532.177 353.617 533.163 352.832C534.149 352.047 535.38 351.636 536.64 351.67C541.19 351.77 560.79 351.96 560.79 351.96L562.28 302.85H534.47Z" fill="url(#paint3_linear_0_1)"/>
<path d="M316.11 331.18C316.11 331.18 318.11 403.25 277.7 413.07C277.7 413.07 253.65 412.01 230.82 393.29L249.74 336.45C249.74 336.45 251.92 357.98 276.33 364.45C276.33 364.48 309.48 371.62 316.11 331.18Z" fill="url(#paint4_linear_0_1)"/>
<path d="M485.72 331.18C485.72 331.18 491.12 401.92 450.72 411.74C450.72 411.74 421.97 415.98 400.4 393.29L419.89 342.81C419.89 342.81 422.39 361.23 446.81 367.73C446.83 367.73 481 372.9 485.72 331.18Z" fill="url(#paint5_linear_0_1)"/>
<path d="M1200.23 354.73C1200.36 365.694 1198.29 376.574 1194.16 386.73C1190.3 396.147 1184.46 404.627 1177.05 411.6C1169.45 418.635 1160.52 424.076 1150.79 427.6C1140.05 431.483 1128.69 433.403 1117.27 433.27H1106.13C1093.99 433.398 1081.91 431.62 1070.32 428C1060.2 424.896 1050.72 420.013 1042.32 413.58C1034.7 407.7 1028.54 400.128 1024.35 391.463C1020.16 382.798 1018.03 373.276 1018.15 363.65C1018.06 354.265 1019.99 344.971 1023.82 336.4C1027.6 328.047 1033.77 320.787 1042.32 314.62C1050.87 308.453 1062.15 303.613 1076.14 300.1C1090.14 296.587 1107.22 294.83 1127.37 294.83H1146.47V292.05C1146.47 276.53 1142.66 265.92 1135.03 260.22C1127.4 254.52 1115.5 251.67 1099.32 251.67C1090.47 251.578 1081.63 252.412 1072.96 254.16C1066.02 255.558 1059.25 257.694 1052.77 260.53C1047.66 262.768 1042.83 265.572 1038.35 268.89C1035.12 271.249 1032.15 273.951 1029.5 276.95H1027.5V259.44C1027.6 253.039 1029.06 246.733 1031.78 240.94C1034.98 234.119 1039.72 228.128 1045.61 223.43C1051.98 218.097 1060.27 213.82 1070.48 210.6C1080.69 207.38 1092.96 205.757 1107.28 205.73C1119.17 205.674 1131.02 207.249 1142.49 210.41C1153.43 213.416 1163.53 218.889 1172.03 226.41C1180.58 233.97 1187.41 244.083 1192.52 256.75C1197.63 269.417 1200.18 285.233 1200.18 304.2L1200.23 354.73ZM1146.91 334H1127.41C1118.75 333.876 1110.1 334.475 1101.55 335.79C1094.65 336.983 1089.15 338.74 1085.04 341.06C1081.32 342.978 1078.32 346.047 1076.49 349.81C1074.85 353.539 1074.04 357.578 1074.1 361.65C1074.1 370.403 1077.35 377.133 1083.85 381.84C1090.35 386.547 1099.68 388.9 1111.85 388.9C1135.18 388.9 1146.85 377.627 1146.85 355.08L1146.91 334Z" fill="#0F62FE"/>
<path d="M1421.24 429.72C1409.83 429.72 1400.82 426.603 1394.19 420.37C1387.56 414.137 1384.25 405.053 1384.24 393.12V303.4C1384.24 294.52 1383.08 286.853 1380.76 280.4C1378.82 274.582 1375.59 269.277 1371.31 264.88C1367.38 261.003 1362.66 258.019 1357.48 256.13C1352.09 254.184 1346.4 253.209 1340.67 253.25C1336.03 253.302 1331.44 254.214 1327.14 255.94C1322.27 257.881 1317.89 260.868 1314.31 264.69C1310.06 269.28 1306.81 274.696 1304.76 280.6C1302.31 287.167 1301.08 295.29 1301.08 304.97V429.72H1283.18C1270.05 429.72 1260.5 426.47 1254.53 419.97C1248.56 413.47 1245.56 404.517 1245.53 393.11V136.3H1262.64C1275.77 136.3 1285.51 139.583 1291.88 146.15C1298.25 152.717 1301.43 161.17 1301.43 171.51V234.17C1303.58 230.494 1306.23 227.13 1309.29 224.17C1312.75 220.724 1316.51 217.595 1320.53 214.82C1324.66 211.801 1329.22 209.421 1334.06 207.76C1342.12 205.2 1342.12 205.2 1349.18 204.98C1377.68 204.08 1399.81 213.17 1415.52 229.55C1431.23 245.93 1439.09 269.77 1439.09 301.07V429.72H1421.24Z" fill="#0F62FE"/>
<path d="M1685.23 331.05C1685.23 400.15 1653.2 434.697 1589.15 434.69C1576.13 434.802 1563.2 432.58 1550.96 428.13C1539.44 423.937 1528.96 417.321 1520.22 408.73C1511.29 399.805 1504.28 389.141 1499.63 377.4C1494.59 365.067 1492.07 350.877 1492.07 334.83V209.7H1502.22C1518 209.7 1529.5 212.95 1536.73 219.45C1543.96 225.95 1547.57 235.763 1547.57 248.89V329.46C1547.57 349.62 1551.85 364.11 1560.4 372.93C1564.44 377.213 1569.34 380.603 1574.77 382.881C1580.2 385.16 1586.04 386.277 1591.93 386.16C1603.34 386.16 1612.55 382.017 1619.58 373.73C1626.61 365.443 1630.12 351.95 1630.12 333.25V209.7H1640.07C1655.98 209.7 1667.49 212.95 1674.58 219.45C1681.67 225.95 1685.22 235.763 1685.22 248.89L1685.23 331.05Z" fill="#0F62FE"/>
<path d="M1948.22 225.22C1943.85 219.526 1938.45 214.703 1932.3 211C1925.98 207.184 1919.28 204.05 1912.3 201.65C1905.42 199.25 1898.32 197.519 1891.11 196.48C1884.65 195.529 1878.14 195.031 1871.61 194.99C1859.75 194.872 1847.99 197.102 1837 201.55C1826.66 205.745 1817.29 212.006 1809.45 219.95C1801.55 228.067 1795.39 237.715 1791.35 248.3C1787.04 259.307 1784.88 271.573 1784.88 285.1C1784.88 301.413 1787.04 315.747 1791.35 328.1C1795.66 340.453 1801.7 350.763 1809.45 359.03C1817.25 367.348 1826.89 373.719 1837.6 377.63C1849.13 381.834 1861.33 383.924 1873.6 383.8C1880.65 383.772 1887.68 383.073 1894.6 381.71C1901.59 380.381 1908.48 378.519 1915.19 376.14C1921.47 373.92 1927.53 371.121 1933.29 367.78C1938.51 364.818 1943.26 361.113 1947.41 356.78H1949.41V377.6C1949.41 387.147 1946.89 395.37 1941.85 402.27C1936.63 409.323 1929.95 415.161 1922.26 419.38C1913.94 424.001 1904.94 427.29 1895.6 429.13C1885.95 431.115 1876.12 432.12 1866.26 432.13C1848.21 432.204 1830.32 428.827 1813.54 422.18C1797.19 415.804 1782.24 406.292 1769.54 394.18C1756.7 381.766 1746.52 366.875 1739.6 350.41C1732.27 333.303 1728.6 314.273 1728.6 293.32C1728.6 271.833 1732.05 252.14 1738.94 234.24C1745.44 216.96 1755.35 201.164 1768.08 187.79C1780.79 174.607 1796.15 164.267 1813.14 157.45C1830.65 150.29 1850.01 146.71 1871.23 146.71C1881.83 146.623 1892.41 147.757 1902.76 150.09C1911.69 152.052 1920.18 155.624 1927.83 160.63C1934.72 165.187 1940.39 171.368 1944.34 178.63C1948.25 185.857 1950.21 194.19 1950.21 203.63V225.31L1948.22 225.22Z" fill="#0F62FE"/>
<path d="M2089.86 398.69C2089.86 410.623 2086.81 419.11 2080.71 424.15C2074.61 429.19 2065.46 431.71 2053.26 431.71C2030.45 431.71 2013.11 425.873 2001.26 414.2C1989.41 402.527 1983.47 385.55 1983.46 363.27V136.27H1998.98C2012.91 136.27 2022.91 139.817 2028.98 146.91C2035.05 154.003 2038.1 162.723 2038.13 173.07V358.07C2038.13 369.21 2040.91 376 2046.88 380.85C2052.39 385.32 2062.13 386.92 2075.13 386.92H2089.85L2089.86 398.69Z" fill="#0F62FE"/>
<path d="M2103.78 323.89C2103.67 308.136 2106.03 292.461 2110.78 277.44C2115.11 263.607 2122.18 250.786 2131.57 239.74C2140.98 228.855 2152.66 220.165 2165.79 214.28C2179.38 208.047 2195 204.93 2212.64 204.93C2229.22 204.93 2243.94 207.98 2256.8 214.08C2269.26 219.876 2280.35 228.251 2289.33 238.65C2298.23 249.075 2305.08 261.09 2309.52 274.06C2314.21 287.588 2316.57 301.812 2316.52 316.13C2316.65 331.898 2314.23 347.582 2309.36 362.58C2304.93 376.343 2297.87 389.113 2288.57 400.18C2279.26 411.026 2267.64 419.656 2254.57 425.44C2240.98 431.607 2225.36 434.69 2207.72 434.69C2191.14 434.69 2176.42 431.607 2163.56 425.44C2151.11 419.634 2140.01 411.312 2130.94 401C2122.01 390.668 2115.16 378.714 2110.75 365.79C2106.08 352.317 2103.72 338.15 2103.78 323.89ZM2259.78 323.89C2259.78 301.89 2255.57 284.683 2247.15 272.27C2238.73 259.857 2225.57 253.657 2207.66 253.67C2191.87 253.67 2180.07 259.507 2172.25 271.18C2164.43 282.853 2160.52 297.853 2160.51 316.18C2160.51 338.06 2164.65 355.137 2172.94 367.41C2181.23 379.683 2194.46 385.817 2212.63 385.81C2228.68 385.81 2240.55 379.973 2248.24 368.3C2255.93 356.627 2259.77 341.823 2259.75 323.89H2259.78Z" fill="#0F62FE"/>
<path d="M2552.38 331.05C2552.38 400.15 2520.35 434.697 2456.3 434.69C2443.28 434.802 2430.35 432.58 2418.11 428.13C2406.59 423.937 2396.11 417.321 2387.37 408.73C2378.44 399.805 2371.43 389.141 2366.78 377.4C2361.74 365.067 2359.22 350.877 2359.22 334.83V209.7H2369.37C2385.15 209.7 2396.65 212.95 2403.88 219.45C2411.11 225.95 2414.72 235.763 2414.72 248.89V329.46C2414.72 349.62 2419 364.11 2427.55 372.93C2431.59 377.213 2436.49 380.603 2441.92 382.881C2447.35 385.16 2453.19 386.277 2459.08 386.16C2470.49 386.16 2479.7 382.017 2486.73 373.73C2493.76 365.443 2497.27 351.95 2497.27 333.25V209.7H2507.22C2523.13 209.7 2534.64 212.95 2541.73 219.45C2548.82 225.95 2552.37 235.763 2552.37 248.89L2552.38 331.05Z" fill="#0F62FE"/>
<path d="M2802.44 328.27C2802.44 344.317 2800.48 358.84 2796.57 371.84C2792.97 384.277 2786.65 395.76 2778.07 405.46C2769.64 414.88 2758.7 422.107 2745.25 427.14C2731.8 432.173 2715.71 434.693 2697 434.7C2683.06 434.812 2669.27 431.823 2656.62 425.95C2644.27 420.201 2633.2 412.014 2624.09 401.88C2614.79 391.534 2607.48 379.565 2602.51 366.57C2597.29 352.955 2594.65 338.483 2594.75 323.9C2594.75 305.867 2596.91 289.533 2601.22 274.9C2605.53 260.267 2611.83 247.7 2620.12 237.2C2628.32 226.773 2638.97 218.53 2651.12 213.2C2663.52 207.7 2677.74 204.947 2693.79 204.94C2699.39 204.968 2704.96 205.841 2710.3 207.53C2715.81 209.228 2721.07 211.671 2725.92 214.79C2730.76 217.9 2735.21 221.595 2739.15 225.79C2742.97 229.802 2746.07 234.448 2748.3 239.52V136.3H2765C2777.99 136.3 2787.48 139.717 2793.45 146.55C2799.42 153.383 2802.42 162.383 2802.45 173.55L2802.44 328.27ZM2747.53 325.88C2747.53 311.953 2746.1 300.25 2743.25 290.77C2740.4 281.29 2736.58 273.623 2731.81 267.77C2727.32 262.18 2721.51 257.792 2714.91 255C2708.36 252.271 2701.32 250.883 2694.22 250.92C2687.56 250.795 2680.98 252.405 2675.12 255.59C2669.46 258.788 2664.59 263.234 2660.9 268.59C2656.77 274.63 2653.68 281.319 2651.75 288.38C2649.5 296.443 2648.4 304.781 2648.47 313.15C2648.35 323.639 2649.79 334.087 2652.75 344.15C2655.25 352.71 2659.18 360.783 2664.39 368.02C2668.93 374.338 2674.85 379.542 2681.7 383.24C2688.45 386.781 2695.96 388.592 2703.58 388.51C2718.97 388.51 2730.14 383.073 2737.1 372.2C2744.06 361.327 2747.54 345.887 2747.53 325.88Z" fill="#0F62FE"/>
<path d="M1146.52 294.85L1146.92 334.04C1146.92 334.04 1122.76 333.47 1106.5 335.12L1100.77 296C1100.77 296 1119.41 294.66 1146.52 294.85Z" fill="url(#paint6_linear_0_1)"/>
<path d="M1146.91 361.49C1146.91 361.49 1147.53 419.58 1110.85 433.3C1110.85 433.3 1081.39 433.3 1067.12 426.82L1044.68 380L1084.2 381.85C1086.71 383.661 1089.49 385.075 1092.43 386.04C1100.43 388.89 1115.31 390.71 1127.76 386.71C1132.04 385.34 1133.9 383.71 1136.22 382.5C1136.22 382.53 1145.86 376 1146.91 361.49Z" fill="url(#paint7_linear_0_1)"/>
<path d="M1301.49 234.17L1301.09 304.74C1301.09 304.74 1300.87 271.08 1321.44 258.93C1325.83 256.077 1330.81 254.255 1336 253.6L1340.34 205.73C1340.34 205.73 1318.63 209.45 1301.49 234.17Z" fill="url(#paint8_linear_0_1)"/>
<path d="M1547.64 336.36C1547.64 336.36 1552.64 415.87 1584.64 433.61C1584.64 433.61 1615.52 436.47 1640.92 422.91L1617.12 375.16C1617.12 375.16 1600.39 393.6 1571.31 380.52C1571.33 380.53 1548.17 370.36 1547.64 336.36Z" fill="url(#paint9_linear_0_1)"/>
<path d="M2497.24 336.19C2497.24 336.19 2496.5 414.45 2458.75 434.7C2458.75 434.7 2427.67 435.79 2403.31 420.95L2427.78 373.63C2427.78 373.63 2445.94 393.13 2473.34 383.54C2473.33 383.54 2498.44 376.17 2497.24 336.19Z" fill="url(#paint10_linear_0_1)"/>
<path d="M1789.86 250.85C1789.86 250.85 1757.33 327.92 1792.86 415.38C1792.86 415.38 1825.86 435.58 1863.86 434.66L1867.23 383.59C1867.23 383.59 1765.5 385.12 1789.86 250.85Z" fill="url(#paint11_linear_0_1)"/>
<path d="M2038.45 364.08C2038.45 364.08 2039.45 420.67 2049.45 431.65C2058.63 432.228 2067.82 430.653 2076.29 427.05L2079.29 386.94C2079.29 386.94 2058.16 388.17 2048.11 381.69C2042 377.73 2039 370.75 2038.45 364.08Z" fill="url(#paint12_linear_0_1)"/>
<path d="M2215.39 253.28C2215.39 253.28 2284.84 258.86 2314.39 329.06C2314.39 329.06 2309.28 372.51 2290.33 395.06L2246.75 367.21C2246.75 367.21 2264.04 345.32 2256.37 299.99C2256.33 300 2252.78 256.2 2215.39 253.28Z" fill="url(#paint13_linear_0_1)"/>
<path d="M2161.83 336.19C2161.83 336.19 2170 404.86 2207.63 434.7C2207.63 434.7 2117.07 442.59 2103.79 329.06C2103.79 329.06 2104.23 298.92 2108.43 285.5L2163 293C2163 293 2158.51 318.13 2161.83 336.19Z" fill="url(#paint14_linear_0_1)"/>
<path d="M2748.33 239.54L2747.53 324.03C2747.53 324.03 2750.17 268.54 2714.91 254.96L2690.52 204.96C2690.52 204.96 2728.4 201.81 2748.33 239.54Z" fill="url(#paint15_linear_0_1)"/>
<path d="M2744.75 353.21C2744.75 353.21 2734 423 2690.52 433.76C2690.52 433.76 2652.25 438.07 2618.29 394.88L2649.38 328.31C2649.38 328.31 2654.5 389.54 2706.01 388.49C2706 388.49 2738.25 390.42 2744.75 353.21Z" fill="url(#paint16_linear_0_1)"/>
<path d="M755.68 168C757.325 164.46 759.657 161.282 762.54 158.65C765.359 156.073 768.631 154.038 772.19 152.65C775.542 151.303 779.117 150.594 782.73 150.56H808V259.4H920.8V180.06C920.699 172.39 923.566 164.977 928.8 159.37C931.278 156.551 934.342 154.308 937.778 152.796C941.213 151.285 944.937 150.542 948.69 150.62H975.94V392.32C975.94 404.52 972.69 413.803 966.19 420.17C959.69 426.537 951.667 429.72 942.12 429.72H920.4V314H808V392.35C808 404.55 804.617 413.833 797.85 420.2C791.083 426.567 783.59 429.75 775.37 429.75H753.1V180.06C753.047 175.898 753.929 171.777 755.68 168Z" fill="#0F62FE"/>
<path d="M920.4 314C920.4 314 973.47 309.32 975.9 348.82V373.82L945.5 412.08L920.4 373.82V314Z" fill="url(#paint17_linear_0_1)"/>
<path d="M807.93 259.41C807.93 259.41 754.86 264.09 752.43 224.59V199.59L780.18 174.29L807.93 199.59V259.41Z" fill="url(#paint18_linear_0_1)"/>
<defs>
<linearGradient id="paint0_linear_0_1" x1="530.779" y1="161.86" x2="591.379" y2="161.86" gradientUnits="userSpaceOnUse">
<stop stop-color="#25527D"/>
<stop offset="0.14" stop-color="#245A8D" stop-opacity="0.86"/>
<stop offset="0.41" stop-color="#2271B7" stop-opacity="0.48"/>
<stop offset="0.72" stop-color="#1F8DED" stop-opacity="0"/>
</linearGradient>
<linearGradient id="paint1_linear_0_1" x1="80.5293" y1="428.72" x2="267.499" y2="428.72" gradientUnits="userSpaceOnUse">
<stop stop-color="#25527D"/>
<stop offset="0.14" stop-color="#245A8D" stop-opacity="0.86"/>
<stop offset="0.41" stop-color="#2271B7" stop-opacity="0.48"/>
<stop offset="0.72" stop-color="#1F8DED" stop-opacity="0"/>
</linearGradient>
<linearGradient id="paint2_linear_0_1" x1="573.07" y1="429.95" x2="387.09" y2="429.95" gradientUnits="userSpaceOnUse">
<stop stop-color="#25527D"/>
<stop offset="0.14" stop-color="#245A8D" stop-opacity="0.86"/>
<stop offset="0.41" stop-color="#2271B7" stop-opacity="0.48"/>
<stop offset="0.72" stop-color="#1F8DED" stop-opacity="0"/>
</linearGradient>
<linearGradient id="paint3_linear_0_1" x1="520.66" y1="330.14" x2="562.66" y2="327.64" gradientUnits="userSpaceOnUse">
<stop stop-color="#25527D"/>
<stop offset="0.23" stop-color="#23629B" stop-opacity="0.81"/>
<stop offset="0.38" stop-color="#226EB2" stop-opacity="0.59"/>
<stop offset="0.71" stop-color="#1F8CEB" stop-opacity="0.02"/>
<stop offset="0.72" stop-color="#1F8DED" stop-opacity="0"/>
</linearGradient>
<linearGradient id="paint4_linear_0_1" x1="315.48" y1="381.64" x2="243.37" y2="352.02" gradientUnits="userSpaceOnUse">
<stop stop-color="#25527D"/>
<stop offset="0.23" stop-color="#23629B" stop-opacity="0.81"/>
<stop offset="0.38" stop-color="#226EB2" stop-opacity="0.59"/>
<stop offset="0.71" stop-color="#1F8CEB" stop-opacity="0.02"/>
<stop offset="0.72" stop-color="#1F8DED" stop-opacity="0"/>
</linearGradient>
<linearGradient id="paint5_linear_0_1" x1="486.52" y1="382.89" x2="415.47" y2="353.7" gradientUnits="userSpaceOnUse">
<stop stop-color="#25527D"/>
<stop offset="0.23" stop-color="#23629B" stop-opacity="0.81"/>
<stop offset="0.38" stop-color="#226EB2" stop-opacity="0.59"/>
<stop offset="0.71" stop-color="#1F8CEB" stop-opacity="0.02"/>
<stop offset="0.72" stop-color="#1F8DED" stop-opacity="0"/>
</linearGradient>
<linearGradient id="paint6_linear_0_1" x1="1169.48" y1="315.26" x2="1066.15" y2="314.59" gradientUnits="userSpaceOnUse">
<stop stop-color="#25527D"/>
<stop offset="0.14" stop-color="#245A8D" stop-opacity="0.86"/>
<stop offset="0.41" stop-color="#2271B7" stop-opacity="0.48"/>
<stop offset="0.72" stop-color="#1F8DED" stop-opacity="0"/>
</linearGradient>
<linearGradient id="paint7_linear_0_1" x1="1150.16" y1="399.08" x2="1069.49" y2="393.41" gradientUnits="userSpaceOnUse">
<stop stop-color="#25527D"/>
<stop offset="0.14" stop-color="#245A8D" stop-opacity="0.86"/>
<stop offset="0.41" stop-color="#2271B7" stop-opacity="0.48"/>
<stop offset="0.72" stop-color="#1F8DED" stop-opacity="0"/>
</linearGradient>
<linearGradient id="paint8_linear_0_1" x1="1294.76" y1="271.23" x2="1346.24" y2="234.56" gradientUnits="userSpaceOnUse">
<stop stop-color="#25527D"/>
<stop offset="0.14" stop-color="#245A8D" stop-opacity="0.86"/>
<stop offset="0.41" stop-color="#2271B7" stop-opacity="0.48"/>
<stop offset="0.72" stop-color="#1F8DED" stop-opacity="0"/>
</linearGradient>
<linearGradient id="paint9_linear_0_1" x1="1547.64" y1="385.12" x2="1640.94" y2="385.12" gradientUnits="userSpaceOnUse">
<stop stop-color="#25527D"/>
<stop offset="0.14" stop-color="#245A8D" stop-opacity="0.86"/>
<stop offset="0.41" stop-color="#2271B7" stop-opacity="0.48"/>
<stop offset="0.72" stop-color="#1F8DED" stop-opacity="0"/>
</linearGradient>
<linearGradient id="paint10_linear_0_1" x1="2497.28" y1="385.45" x2="2403.31" y2="385.45" gradientUnits="userSpaceOnUse">
<stop stop-color="#25527D"/>
<stop offset="0.14" stop-color="#245A8D" stop-opacity="0.86"/>
<stop offset="0.41" stop-color="#2271B7" stop-opacity="0.48"/>
<stop offset="0.72" stop-color="#1F8DED" stop-opacity="0"/>
</linearGradient>
<linearGradient id="paint11_linear_0_1" x1="1770.42" y1="318.87" x2="1853.75" y2="375.54" gradientUnits="userSpaceOnUse">
<stop stop-color="#25527D"/>
<stop offset="0.14" stop-color="#245A8D" stop-opacity="0.86"/>
<stop offset="0.41" stop-color="#2271B7" stop-opacity="0.48"/>
<stop offset="0.72" stop-color="#1F8DED" stop-opacity="0"/>
</linearGradient>
<linearGradient id="paint12_linear_0_1" x1="2026.41" y1="389.57" x2="2087.08" y2="418.24" gradientUnits="userSpaceOnUse">
<stop stop-color="#25527D"/>
<stop offset="0.14" stop-color="#245A8D" stop-opacity="0.86"/>
<stop offset="0.41" stop-color="#2271B7" stop-opacity="0.48"/>
<stop offset="0.72" stop-color="#1F8DED" stop-opacity="0"/>
</linearGradient>
<linearGradient id="paint13_linear_0_1" x1="2259.15" y1="258.8" x2="2282.65" y2="391.8" gradientUnits="userSpaceOnUse">
<stop stop-color="#25527D"/>
<stop offset="0.14" stop-color="#245A8D" stop-opacity="0.86"/>
<stop offset="0.41" stop-color="#2271B7" stop-opacity="0.48"/>
<stop offset="0.72" stop-color="#1F8DED" stop-opacity="0"/>
</linearGradient>
<linearGradient id="paint14_linear_0_1" x1="2228.35" y1="407.55" x2="2078.02" y2="298.88" gradientUnits="userSpaceOnUse">
<stop stop-color="#25527D"/>
<stop offset="0.14" stop-color="#245A8D" stop-opacity="0.86"/>
<stop offset="0.41" stop-color="#2271B7" stop-opacity="0.48"/>
<stop offset="0.72" stop-color="#1F8DED" stop-opacity="0"/>
</linearGradient>
<linearGradient id="paint15_linear_0_1" x1="2759.39" y1="279.1" x2="2685.89" y2="246.35" gradientUnits="userSpaceOnUse">
<stop stop-color="#25527D"/>
<stop offset="0.14" stop-color="#245A8D" stop-opacity="0.86"/>
<stop offset="0.41" stop-color="#2271B7" stop-opacity="0.48"/>
<stop offset="0.72" stop-color="#1F8DED" stop-opacity="0"/>
</linearGradient>
<linearGradient id="paint16_linear_0_1" x1="2751.48" y1="390.78" x2="2629.15" y2="376.78" gradientUnits="userSpaceOnUse">
<stop stop-color="#25527D"/>
<stop offset="0.14" stop-color="#245A8D" stop-opacity="0.86"/>
<stop offset="0.41" stop-color="#2271B7" stop-opacity="0.48"/>
<stop offset="0.72" stop-color="#1F8DED" stop-opacity="0"/>
</linearGradient>
<linearGradient id="paint17_linear_0_1" x1="947.88" y1="303.27" x2="948.38" y2="412.77" gradientUnits="userSpaceOnUse">
<stop stop-color="#25527D"/>
<stop offset="0.14" stop-color="#245A8D" stop-opacity="0.86"/>
<stop offset="0.41" stop-color="#2271B7" stop-opacity="0.48"/>
<stop offset="0.72" stop-color="#1F8DED" stop-opacity="0"/>
</linearGradient>
<linearGradient id="paint18_linear_0_1" x1="779.18" y1="263.34" x2="782.18" y2="162.34" gradientUnits="userSpaceOnUse">
<stop stop-color="#25527D"/>
<stop offset="0.14" stop-color="#245A8D" stop-opacity="0.86"/>
<stop offset="0.41" stop-color="#2271B7" stop-opacity="0.48"/>
<stop offset="0.72" stop-color="#1F8DED" stop-opacity="0"/>
</linearGradient>
</defs>
</svg>
